<svg xmlns="http://www.w3.org/2000/svg" viewBox="0 0 256 256" fill="none">
  <defs>
    <linearGradient id="shield-gradient" x1="0%" y1="0%" x2="100%" y2="100%">
      <stop offset="0%" style="stop-color:#7C3AED;stop-opacity:1" />
      <stop offset="100%" style="stop-color:#3B82F6;stop-opacity:1" />
    </linearGradient>
  </defs>
  <!-- Shield background -->
  <path d="M224,56a8,8,0,0,0-8-8H40a8,8,0,0,0-8,8v56c0,52.72,25.52,84.67,46.93,102.19,23.06,18.86,46,26.07,47.07,26.38a8,8,0,0,0,4,0c1.07-.31,24-7.52,47.07-26.38C198.48,196.67,224,164.72,224,112V56Z" fill="url(#shield-gradient)"/>
  <!-- Checkmark -->
  <path d="M173.66,98.34a8,8,0,0,1,0,11.32l-56,56a8,8,0,0,1-11.32,0l-24-24a8,8,0,0,1,11.32-11.32L112,148.69l50.34-50.35A8,8,0,0,1,173.66,98.34Z" fill="white"/>
</svg>

